<?xml version="1.0" encoding="UTF-8"?><svg id="Layer_1" xmlns="http://www.w3.org/2000/svg" viewBox="0 0 243.01 185.12"><defs><style>.cls-1{fill:#cb9700;}.cls-2{fill:#fff;}</style></defs><path class="cls-2" d="M103.21,36.19c-1.79,0-2.97,1.86-2.97,1.86,0,0-1.2-1.86-2.97-1.86h-.19v7.51c-1.03-.54-1.67-1.53-1.67-1.53,0,0-.63,1-1.67,1.53v-7.51h-2.41v12.57h5.95c1.77,0,2.97,1.86,2.97,1.86,0,0,1.18-1.86,2.97-1.86h5.95v-12.57h-5.95Z"/><path class="cls-1" d="M106.72,24.89c.25,.42,.4,.9,.4,1.42,0,1.59-1.03,2.87-2.65,2.87s-2.93-1.29-2.93-2.87c0-.86,.4-1.63,1.01-2.16h0c-.36-1.75-2.32-3.94-2.32-3.94,0,0-1.97,2.19-2.32,3.94h0c.61,.53,1.01,1.3,1.01,2.16,0,1.59-1.31,2.87-2.93,2.87s-2.67-1.29-2.67-2.87c0-.52,.15-1,.4-1.42-1.13-1.45-3.42-2.37-3.42-2.37l2.03,10.54h5.27c1.57,0,2.64,1.65,2.64,1.65,0,0,1.06-1.65,2.63-1.65h5.27l2.03-10.54s-2.32,.92-3.44,2.37Z"/><path class="cls-2" d="M121.52,24.55c0-11.69,8.81-20.5,20.5-20.5h18.66c-.02-1.27-.04-2.02-.04-2.06l-.05-1.99h-21.18c-8.85,0-16.49,5.64-19.99,13.76-3.5-8.12-11.15-13.76-20-13.76h-16.71c-2.49,0-4.52,2.12-4.52,4.63,0,.2-.95,20.63,.59,40.41,1.57,20.23,21.74,38.38,39.92,45.19l.73,.27,.72-.28c.45-.18,.91-.36,1.37-.55V24.55Zm-4.14,60.74c-16.22-7.06-33.17-23.02-34.53-40.57-1.52-19.52-.59-39.7-.58-39.99,0-.37,.23-.65,.44-.65h16.71c9.9,0,17.96,8.81,17.96,19.64v61.57Z"/><path class="cls-2" d="M160.77,19.94c0-1.47,0-2.88,0-4.24h-16.51c-7.74,0-11.19,3.45-11.19,11.17v56.65c1.31-.85,2.61-1.75,3.89-2.7V28.42c0-6.28,.67-8.47,8.16-8.47h15.64Z"/><path class="cls-2" d="M125.29,24.55v63.41c1.34-.66,2.68-1.37,4.02-2.13V26.87c0-9.92,5.03-14.94,14.96-14.94h16.5c0-1.51-.02-2.89-.04-4.11h-18.71c-9.54,0-16.73,7.19-16.73,16.73Z"/><path class="cls-1" d="M145.13,23.72q-4.39,0-4.39,4.7v49.43c10.45-8.81,18.55-20.53,19.31-32.84,.42-6.85,.61-14.43,.69-21.29h-15.61Z"/><g><path class="cls-2" d="M32.57,152.37c-2.79,.68-5.83,1.02-9.13,1.02s-6.56-.54-9.43-1.63c-2.87-1.08-5.34-2.61-7.41-4.58-2.07-1.97-3.69-4.33-4.85-7.08-1.17-2.75-1.75-5.81-1.75-9.19s.59-6.51,1.78-9.28c1.18-2.77,2.82-5.13,4.91-7.08,2.09-1.95,4.54-3.44,7.35-4.49,2.81-1.04,5.84-1.57,9.1-1.57s6.51,.51,9.4,1.54c2.89,1.02,5.24,2.4,7.05,4.13l-6.51,7.41c-1-1.16-2.33-2.12-3.98-2.86-1.65-.74-3.52-1.11-5.6-1.11-1.81,0-3.47,.33-5,.99-1.53,.66-2.85,1.59-3.98,2.77-1.12,1.19-2,2.59-2.62,4.22-.62,1.63-.93,3.4-.93,5.33s.28,3.78,.84,5.42c.56,1.65,1.4,3.06,2.5,4.25,1.1,1.19,2.47,2.11,4.1,2.77,1.63,.66,3.48,.99,5.57,.99,1.2,0,2.35-.09,3.43-.27,1.08-.18,2.09-.47,3.01-.87v-7.77h-8.13v-8.31h17.59v22.59c-2.09,1.08-4.53,1.97-7.32,2.65Z"/><path class="cls-2" d="M48.32,152.31v-42.66h28.68v8.68h-18.74v8.07h17.71v8.25h-17.71v8.86h19.82v8.8h-29.76Z"/><path class="cls-2" d="M112.01,152.31l-17.17-27.9h-.18l.24,27.9h-10v-42.66h11.75l17.11,27.84h.18l-.24-27.84h10v42.66h-11.69Z"/><path class="cls-2" d="M131.62,152.31v-42.66h28.68v8.68h-18.74v8.07h17.71v8.25h-17.71v8.86h19.82v8.8h-29.76Z"/><path class="cls-2" d="M189.34,152.31h-10.3l-16.15-42.66h11.57l9.88,30.25h.24l9.82-30.25h11.39l-16.45,42.66Z"/><path class="cls-2" d="M231.56,152.31l-3.31-8.37h-16.51l-3.13,8.37h-11.21l17.89-42.66h10l17.71,42.66h-11.45Zm-11.45-31.27l-5.42,14.64h10.72l-5.3-14.64Z"/><path class="cls-2" d="M29.02,185.12c-2.17,0-4.07-.49-5.7-1.46-1.63-.97-2.91-2.33-3.83-4.06-.92-1.73-1.38-3.74-1.38-6.01,0-1.86,.31-3.5,.92-4.91,.61-1.41,1.45-2.59,2.5-3.53,1.05-.94,2.25-1.65,3.58-2.12,1.34-.47,2.72-.71,4.14-.71,1.29,0,2.54,.15,3.73,.44,1.19,.3,2.37,.72,3.53,1.27-.13,.75-.22,1.56-.28,2.43-.05,.88-.08,1.76-.08,2.66-.29,.13-.67,.23-1.15,.3-.48,.07-.94,.1-1.38,.1-.02-1.34-.21-2.39-.56-3.15-.35-.77-.83-1.3-1.45-1.61-.61-.31-1.34-.46-2.17-.46-1.12,0-2.07,.24-2.86,.71-.79,.47-1.42,1.1-1.91,1.89-.48,.79-.84,1.69-1.07,2.69-.23,1.01-.34,2.06-.34,3.16,0,1.84,.28,3.51,.84,5,.56,1.49,1.39,2.67,2.48,3.53,1.1,.87,2.45,1.3,4.08,1.3,.9,0,1.82-.14,2.78-.43,.95-.28,1.88-.69,2.78-1.22,.18,.15,.33,.36,.48,.62,.14,.26,.24,.53,.28,.79-1.03,.83-2.19,1.51-3.47,2.02s-2.78,.77-4.49,.77Z"/><path class="cls-2" d="M59.88,185.12c-2.28,0-4.24-.49-5.9-1.48-1.65-.99-2.94-2.34-3.84-4.06-.91-1.72-1.36-3.71-1.36-5.96,0-1.71,.28-3.26,.84-4.65,.56-1.39,1.34-2.58,2.33-3.58,1-1,2.17-1.76,3.52-2.28s2.82-.79,4.42-.79c2.21,0,4.15,.46,5.82,1.38,1.67,.92,2.97,2.21,3.91,3.88,.94,1.67,1.41,3.61,1.41,5.85,0,1.69-.26,3.24-.79,4.67-.53,1.42-1.28,2.66-2.27,3.71-.99,1.05-2.17,1.87-3.53,2.45-1.37,.58-2.89,.87-4.55,.87Zm.53-2.1c1.16,0,2.15-.38,2.96-1.13,.81-.76,1.43-1.8,1.86-3.12,.43-1.33,.64-2.85,.64-4.58,0-1.82-.27-3.47-.82-4.96-.55-1.49-1.31-2.67-2.3-3.55-.99-.88-2.13-1.31-3.42-1.31-1.07,0-2.02,.34-2.83,1.02-.81,.68-1.45,1.65-1.91,2.91-.46,1.26-.69,2.77-.69,4.52,0,1.34,.14,2.62,.41,3.86,.27,1.24,.68,2.33,1.22,3.29,.54,.95,1.21,1.7,2.02,2.25,.81,.55,1.76,.82,2.86,.82Z"/><path class="cls-2" d="M93.92,182.82c.96,0,1.75-.14,2.37-.43,.61-.28,1.12-.74,1.53-1.38,.4-.64,.76-1.47,1.07-2.5,.55,.09,1.03,.21,1.45,.38,.42,.16,.76,.36,1.02,.58-.24,.75-.45,1.61-.62,2.58-.18,.98-.31,1.92-.39,2.84-.55-.02-1.24-.03-2.09-.03s-1.75,0-2.71-.02c-.96-.01-1.87-.02-2.73-.02-.59,0-1.34,0-2.23,.02s-1.82,.02-2.76,.03c-.94,.01-1.81,.02-2.61,.03s-1.4,.02-1.79,.02c0-.39,.02-.77,.05-1.12,.03-.35,.09-.65,.18-.89,.59-.04,1.05-.16,1.36-.34,.32-.19,.54-.52,.67-1,.13-.48,.2-1.19,.2-2.14v-11.67c0-.85-.06-1.51-.18-1.96s-.34-.76-.67-.94c-.33-.18-.79-.3-1.38-.36-.09-.24-.14-.56-.16-.95-.02-.39-.03-.74-.03-1.05,.57,.02,1.12,.04,1.64,.05,.53,.01,1.06,.02,1.59,.03s1.09,.02,1.66,.02c.5,0,1.05,0,1.63-.02s1.16-.02,1.73-.03c.57-.01,1.07-.03,1.51-.05,0,.37-.01,.73-.03,1.08-.02,.35-.09,.66-.2,.92-.57,.04-1.02,.16-1.35,.34-.33,.19-.55,.5-.67,.95-.12,.45-.18,1.12-.18,2.02v11.54c0,.92,.08,1.63,.23,2.12,.15,.49,.43,.84,.84,1.04,.4,.2,.97,.3,1.69,.3h.39Z"/><path class="cls-2" d="M123.57,182.82c.96,0,1.75-.14,2.37-.43,.61-.28,1.12-.74,1.53-1.38,.4-.64,.76-1.47,1.07-2.5,.55,.09,1.03,.21,1.45,.38,.42,.16,.76,.36,1.02,.58-.24,.75-.45,1.61-.62,2.58-.18,.98-.31,1.92-.39,2.84-.55-.02-1.24-.03-2.09-.03s-1.75,0-2.71-.02c-.96-.01-1.87-.02-2.73-.02-.59,0-1.34,0-2.23,.02s-1.82,.02-2.76,.03c-.94,.01-1.81,.02-2.61,.03s-1.4,.02-1.79,.02c0-.39,.02-.77,.05-1.12,.03-.35,.09-.65,.18-.89,.59-.04,1.05-.16,1.36-.34,.32-.19,.54-.52,.67-1,.13-.48,.2-1.19,.2-2.14v-11.67c0-.85-.06-1.51-.18-1.96s-.34-.76-.67-.94c-.33-.18-.79-.3-1.38-.36-.09-.24-.14-.56-.16-.95-.02-.39-.03-.74-.03-1.05,.57,.02,1.12,.04,1.64,.05,.53,.01,1.06,.02,1.59,.03s1.09,.02,1.66,.02c.5,0,1.05,0,1.63-.02s1.16-.02,1.73-.03c.57-.01,1.07-.03,1.51-.05,0,.37-.01,.73-.03,1.08-.02,.35-.09,.66-.2,.92-.57,.04-1.02,.16-1.35,.34-.33,.19-.55,.5-.67,.95-.12,.45-.18,1.12-.18,2.02v11.54c0,.92,.08,1.63,.23,2.12,.15,.49,.43,.84,.84,1.04,.4,.2,.97,.3,1.69,.3h.39Z"/><path class="cls-2" d="M142.69,162.51c.44,.02,.97,.04,1.61,.05s1.31,.02,2.02,.03c.71,.01,1.4,.02,2.05,.02h1.68v16.76c0,.92,.08,1.63,.23,2.12,.15,.49,.43,.84,.84,1.04,.4,.2,.97,.3,1.69,.3l-.72,2c-.59,0-1.34,0-2.23,.02s-1.82,.02-2.76,.03c-.94,.01-1.81,.02-2.61,.03s-1.4,.02-1.79,.02c0-.39,.02-.77,.05-1.12,.03-.35,.09-.65,.18-.89,.59-.04,1.05-.16,1.36-.34,.32-.19,.54-.52,.66-1,.12-.48,.18-1.19,.18-2.14v-11.67c0-.85-.06-1.51-.18-1.96s-.34-.76-.66-.94c-.32-.18-.78-.3-1.4-.36-.07-.24-.11-.56-.15-.95-.03-.39-.05-.74-.05-1.05Zm13.77,7.39c-.02,.55-.04,1.13-.07,1.74-.02,.61-.03,1.28-.03,2s.01,1.44,.03,2.09c.02,.65,.04,1.23,.07,1.76-.46,0-.87-.02-1.22-.05-.35-.03-.68-.1-.99-.21-.09-1.01-.36-1.69-.81-2.04-.45-.35-1.26-.53-2.42-.53h-2.1v-1.94h2.1c1.23,0,2.05-.18,2.48-.53,.43-.35,.65-1.01,.67-1.97,.33-.13,.69-.22,1.08-.26,.39-.04,.79-.07,1.18-.07Zm2.56-7.39c.04,.53,.09,1.13,.15,1.81,.05,.68,.13,1.34,.23,1.99,.1,.65,.2,1.22,.31,1.73-.29,.15-.63,.28-1.02,.38-.39,.1-.87,.15-1.41,.15-.09-.74-.28-1.42-.58-2.02-.3-.6-.78-1.09-1.46-1.46-.68-.37-1.64-.56-2.89-.56h-3.38l.92-1.91c1.66,0,3.09,0,4.27-.02,1.18-.01,2.17-.02,2.96-.03s1.42-.03,1.91-.05Zm-.53,16.01c.53,.09,1,.21,1.43,.38,.43,.16,.76,.36,1,.58-.24,.75-.44,1.61-.61,2.58-.16,.98-.3,1.92-.41,2.84-.53-.02-1.22-.03-2.09-.03s-1.8,0-2.79-.02c-1-.01-1.98-.02-2.94-.02l.72-2h.39c1.14,0,2.04-.15,2.69-.46,.66-.31,1.18-.78,1.56-1.41,.38-.64,.73-1.45,1.04-2.43Z"/><path class="cls-2" d="M184.07,185.12c-2.28,0-4.26-.47-5.95-1.4-1.69-.93-2.99-2.27-3.91-4.01-.92-1.74-1.38-3.82-1.38-6.23,0-1.8,.29-3.39,.87-4.78s1.4-2.56,2.45-3.5c1.05-.94,2.28-1.66,3.68-2.15,1.4-.49,2.94-.74,4.6-.74,1.51,0,2.95,.16,4.31,.48,1.36,.32,2.52,.71,3.48,1.17-.13,.75-.22,1.54-.28,2.4-.05,.85-.08,1.75-.08,2.69-.37,.15-.78,.25-1.22,.3-.44,.04-.88,.07-1.31,.07-.04-1.34-.28-2.37-.71-3.11-.43-.73-1-1.25-1.71-1.56-.71-.31-1.53-.46-2.45-.46-1.51,0-2.74,.41-3.7,1.22-.95,.81-1.65,1.86-2.1,3.14-.45,1.28-.67,2.65-.67,4.09,0,1.93,.26,3.67,.77,5.23,.51,1.56,1.27,2.78,2.25,3.68,.99,.9,2.18,1.35,3.58,1.35,.48,0,.89-.02,1.22-.07,.33-.04,.66-.13,.99-.26,.33-.13,.59-.36,.79-.67,.2-.32,.3-.89,.3-1.73v-1.38c0-.83-.06-1.44-.18-1.82-.12-.38-.37-.65-.74-.79-.37-.14-.92-.22-1.64-.25-.09-.26-.15-.57-.18-.92-.03-.35-.05-.72-.05-1.12,.55,.02,1.23,.04,2.04,.07,.81,.02,1.57,.03,2.27,.03s1.44,0,2.27-.02c.83-.01,1.51-.03,2.04-.05,0,.31-.01,.64-.03,1-.02,.36-.08,.7-.16,1-.39,.02-.7,.1-.9,.23s-.34,.38-.39,.74-.08,.9-.08,1.63v1.12c0,.68,.03,1.22,.1,1.61,.07,.39,.2,.81,.39,1.25-.99,.72-2.21,1.33-3.68,1.81-1.47,.48-3.09,.72-4.86,.72Z"/><path class="cls-2" d="M206.38,162.51c.44,.02,.97,.04,1.61,.05s1.31,.02,2.02,.03c.71,.01,1.4,.02,2.05,.02h1.68v16.76c0,.92,.08,1.63,.23,2.12,.15,.49,.43,.84,.84,1.04,.4,.2,.97,.3,1.69,.3l-.72,2c-.59,0-1.34,0-2.23,.02s-1.82,.02-2.76,.03c-.94,.01-1.81,.02-2.61,.03s-1.4,.02-1.79,.02c0-.39,.02-.77,.05-1.12,.03-.35,.09-.65,.18-.89,.59-.04,1.05-.16,1.36-.34,.32-.19,.54-.52,.66-1,.12-.48,.18-1.19,.18-2.14v-11.67c0-.85-.06-1.51-.18-1.96s-.34-.76-.66-.94c-.32-.18-.78-.3-1.4-.36-.07-.24-.11-.56-.15-.95-.03-.39-.05-.74-.05-1.05Zm13.77,7.39c-.02,.55-.04,1.13-.07,1.74-.02,.61-.03,1.28-.03,2s.01,1.44,.03,2.09c.02,.65,.04,1.23,.07,1.76-.46,0-.87-.02-1.22-.05-.35-.03-.68-.1-.99-.21-.09-1.01-.36-1.69-.81-2.04-.45-.35-1.26-.53-2.42-.53h-2.1v-1.94h2.1c1.23,0,2.05-.18,2.48-.53,.43-.35,.65-1.01,.67-1.97,.33-.13,.69-.22,1.08-.26,.39-.04,.79-.07,1.18-.07Zm2.56-7.39c.04,.53,.09,1.13,.15,1.81,.05,.68,.13,1.34,.23,1.99,.1,.65,.2,1.22,.31,1.73-.29,.15-.63,.28-1.02,.38-.39,.1-.87,.15-1.41,.15-.09-.74-.28-1.42-.58-2.02-.3-.6-.78-1.09-1.46-1.46-.68-.37-1.64-.56-2.89-.56h-3.38l.92-1.91c1.66,0,3.09,0,4.27-.02,1.18-.01,2.17-.02,2.96-.03s1.42-.03,1.91-.05Zm-.53,16.01c.53,.09,1,.21,1.43,.38,.43,.16,.76,.36,1,.58-.24,.75-.44,1.61-.61,2.58-.16,.98-.3,1.92-.41,2.84-.53-.02-1.22-.03-2.09-.03s-1.8,0-2.79-.02c-1-.01-1.98-.02-2.94-.02l.72-2h.39c1.14,0,2.04-.15,2.69-.46,.66-.31,1.18-.78,1.56-1.41,.38-.64,.73-1.45,1.04-2.43Z"/></g></svg>